<svg width="24" height="24" viewBox="0 0 24 24" fill="none" xmlns="http://www.w3.org/2000/svg">
<path d="M15.7417 21.9998C15.5026 22.0005 15.2664 21.9544 15.0504 21.8647C14.8344 21.7751 14.6441 21.6443 14.4935 21.4819L6.76407 13.0827C6.5287 12.8322 6.40002 12.518 6.40002 12.1937C6.40002 11.8695 6.5287 11.5553 6.76407 11.3048L14.7655 2.90561C15.0371 2.61973 15.4275 2.43995 15.8506 2.40583C16.2738 2.3717 16.6951 2.48601 17.0219 2.72363C17.3487 2.96124 17.5542 3.30268 17.5932 3.67284C17.6323 4.043 17.5016 4.41156 17.23 4.69744L10.0767 12.2007L16.9899 19.704C17.1856 19.9095 17.3099 20.1597 17.3481 20.4251C17.3863 20.6904 17.3369 20.9598 17.2055 21.2013C17.0742 21.4428 16.8666 21.6464 16.6072 21.7879C16.3477 21.9294 16.0474 22.0029 15.7417 21.9998Z" fill="white"/>
</svg>
