<svg width="30" height="31" viewBox="0 0 30 31" fill="none" xmlns="http://www.w3.org/2000/svg">
<path fill-rule="evenodd" clip-rule="evenodd" d="M0.0564335 13.7791C0.403161 9.81601 2.31003 6.15295 5.35754 3.59579C8.40505 1.03862 12.3436 -0.203194 16.3067 0.143533C20.2698 0.49026 23.9329 2.39712 26.49 5.44464C29.0472 8.49215 30.289 12.4307 29.9423 16.3938C29.5955 20.3569 27.6887 24.02 24.6412 26.5771C21.5937 29.1343 17.6551 30.3761 13.692 30.0294C9.72891 29.6826 6.06586 27.7758 3.50869 24.7283C0.951519 21.6808 -0.290294 17.7422 0.0564335 13.7791H0.0564335ZM13.5871 21.4074L23.1311 11.4052L21.6858 10.026L13.5479 18.5511L8.73049 13.7671L7.32149 15.1857L13.5869 21.4094L13.5871 21.4074Z" fill="#418AF9"/>
</svg>
