<svg width="23" height="23" viewBox="0 0 23 23" fill="none" xmlns="http://www.w3.org/2000/svg">
<path d="M16.5 2.58661C16.7626 2.32396 17.0744 2.11562 17.4176 1.97348C17.7608 1.83134 18.1286 1.75818 18.5 1.75818C18.8714 1.75818 19.2392 1.83134 19.5824 1.97348C19.9256 2.11562 20.2374 2.32396 20.5 2.58661C20.7626 2.84925 20.971 3.16105 21.1131 3.50421C21.2553 3.84737 21.3284 4.21517 21.3284 4.58661C21.3284 4.95804 21.2553 5.32584 21.1131 5.669C20.971 6.01216 20.7626 6.32396 20.5 6.58661L7 20.0866L1.5 21.5866L3 16.0866L16.5 2.58661Z" stroke="white" stroke-width="2" stroke-linecap="round" stroke-linejoin="round"/>
</svg>
