<svg width="24" height="25" viewBox="0 0 24 25" fill="none" xmlns="http://www.w3.org/2000/svg">
<path d="M3 6.58661H5H21" stroke="white" stroke-width="2" stroke-linecap="round" stroke-linejoin="round"/>
<path d="M8 6.58661V4.58661C8 4.05618 8.21071 3.54747 8.58579 3.1724C8.96086 2.79732 9.46957 2.58661 10 2.58661H14C14.5304 2.58661 15.0391 2.79732 15.4142 3.1724C15.7893 3.54747 16 4.05618 16 4.58661V6.58661M19 6.58661V20.5866C19 21.117 18.7893 21.6257 18.4142 22.0008C18.0391 22.3759 17.5304 22.5866 17 22.5866H7C6.46957 22.5866 5.96086 22.3759 5.58579 22.0008C5.21071 21.6257 5 21.117 5 20.5866V6.58661H19Z" stroke="white" stroke-width="2" stroke-linecap="round" stroke-linejoin="round"/>
<path d="M10 11.5866V17.5866" stroke="white" stroke-width="2" stroke-linecap="round" stroke-linejoin="round"/>
<path d="M14 11.5866V17.5866" stroke="white" stroke-width="2" stroke-linecap="round" stroke-linejoin="round"/>
</svg>
