<svg width="20" height="20" viewBox="0 0 20 20" fill="none" xmlns="http://www.w3.org/2000/svg">
<path d="M9.78277 0.399918C7.27096 0.404428 4.99036 1.39423 3.30663 3.0033L1.95296 1.64962C1.37986 1.07653 0.400024 1.4824 0.400024 2.29284V7.37411C0.400024 7.87651 0.807294 8.28378 1.3097 8.28378H6.39096C7.20141 8.28378 7.60728 7.30395 7.03422 6.73085L5.45176 5.14839C6.6216 4.05303 8.13534 3.44627 9.74354 3.4324C13.2457 3.40215 16.1978 6.23637 16.1675 9.85479C16.1388 13.2873 13.3559 16.1676 9.80001 16.1676C8.24117 16.1676 6.76787 15.6113 5.60678 14.5925C5.42701 14.4348 5.15551 14.4444 4.98638 14.6135L3.48307 16.1168C3.2984 16.3015 3.30754 16.6025 3.50134 16.7776C5.16817 18.2831 7.37701 19.1999 9.80001 19.1999C14.9915 19.1999 19.2 14.9914 19.2 9.79999C19.2 4.61449 14.9683 0.390631 9.78277 0.399918Z" fill="white"/>
</svg>
