<svg width="149" height="176" viewBox="0 0 149 176" fill="none" xmlns="http://www.w3.org/2000/svg">
<g opacity="0.2">
<path d="M90.5396 159.299C90.5396 168.158 83.3584 175.339 74.5 175.339C65.6416 175.339 58.4605 168.158 58.4605 159.299V16.0395C58.4605 7.18112 65.6416 -1.52588e-05 74.5 -1.52588e-05C83.3584 -1.52588e-05 90.5396 7.18112 90.5396 16.0395V159.299Z" fill="white"/>
<path d="M32.0791 122.729C32.0791 131.587 24.898 138.768 16.0396 138.768C7.18119 138.768 4.57764e-05 131.587 4.57764e-05 122.729V46.0975C4.57764e-05 37.2391 7.18119 30.058 16.0396 30.058C24.898 30.058 32.0791 37.2391 32.0791 46.0975V122.729Z" fill="white"/>
<path d="M149 122.729C149 131.587 141.819 138.768 132.96 138.768C124.102 138.768 116.921 131.587 116.921 122.729V46.0975C116.921 37.2391 124.102 30.058 132.96 30.058C141.819 30.058 149 37.2391 149 46.0975V122.729Z" fill="white"/>
</g>
</svg>
